<svg xmlns="http://www.w3.org/2000/svg" viewBox="0 0 400 700" role="img" aria-labelledby="title desc"><title id="title">Provisional whole-body anatomy board</title><desc id="desc">A neutral front-facing human outline with construction landmarks.</desc><rect width="400" height="700" rx="24" fill="#e9e4d7"/><g fill="#fffdf7" fill-opacity=".45" stroke="#76938c" stroke-width="4"><circle cx="200" cy="78" r="48"/><path d="M147 140q53-30 106 0l36 210q-15 62-53 92l32 217h-52l-16-197-16 197h-52l32-217q-38-30-53-92Z"/><path d="M150 156Q89 211 52 363l40 9 83-167M250 156q61 55 98 207l-40 9-83-167"/></g><g fill="none" stroke="#76938c" stroke-opacity=".35" stroke-width="2"><path d="M200 126v350M143 260h114M154 351h92"/><circle cx="200" cy="255" r="70"/><circle cx="200" cy="370" r="64"/></g><text x="20" y="680" fill="#657775" font-family="monospace" font-size="11" letter-spacing="2">PROVISIONAL • NORMALIZED BOARD</text></svg>
